<svg width="692" height="290" viewBox="0 0 692 290" fill="none" xmlns="http://www.w3.org/2000/svg">
	<path d="M639.868 133.039C650.693 133.039 659.468 124.249 659.468 113.407C659.468 102.564 650.693 93.7748 639.868 93.7748C629.044 93.7748 620.269 102.564 620.269 113.407C620.269 124.249 629.044 133.039 639.868 133.039Z" fill="#F3ECF7" stroke="#32274B" stroke-miterlimit="10" />
	<path d="M361.825 198.002C370.351 198.002 377.263 191.079 377.263 182.539C377.263 173.999 370.351 167.076 361.825 167.076C353.299 167.076 346.388 173.999 346.388 182.539C346.388 191.079 353.299 198.002 361.825 198.002Z" fill="#F3ECF7" stroke="#32274B" stroke-linejoin="round" />
	<path d="M687.414 49.8947H568.359L507.08 133.197L509.23 138.842H628.28L691 53.9047L687.414 49.8947Z" fill="#5EBC89" stroke="#32274B" stroke-miterlimit="10" />
	<path d="M626.135 133.197H507.08L568.359 49.8947H687.414L626.135 133.197Z" fill="#88D0A3" stroke="#32274B" stroke-linejoin="round" />
	<path d="M629.408 137.938L627.262 132.293" stroke="#32274B" stroke-miterlimit="10" />
	<path d="M584.243 74.8495H465.188L403.908 158.152L406.059 163.797H525.114L587.833 78.8644L584.243 74.8495Z" fill="#FFAF7E" stroke="#32274B" stroke-miterlimit="10" />
	<path d="M522.963 158.152H403.908L465.188 74.8495H584.243L522.963 158.152Z" fill="#FFC8A3" stroke="#32274B" stroke-linejoin="round" />
	<path d="M525.114 163.797L522.963 158.152" stroke="#32274B" stroke-miterlimit="10" />
	<path d="M491.45 97.6499H372.394L311.12 180.952L313.265 186.597H432.32L495.04 101.665L491.45 97.6499Z" fill="#A88FEF" stroke="#32274B" stroke-miterlimit="10" />
	<path d="M430.17 180.952H311.12L372.394 97.6499H491.45L430.17 180.952Z" fill="#C1AAF7" stroke="#32274B" stroke-linejoin="round" />
	<path d="M432.321 186.597L430.171 180.952" stroke="#32274B" stroke-miterlimit="10" />
	<path d="M463.796 158.147L492.89 104.372L453.471 157.772L463.796 158.147Z" fill="#32274B" />
	<path d="M570.954 83.9736C573.358 81.4227 574.3 78.4032 573.059 77.2293C571.817 76.0553 568.862 77.1715 566.458 79.7224C564.054 82.2733 563.112 85.2928 564.353 86.4668C565.595 87.6407 568.55 86.5245 570.954 83.9736Z" fill="#32274B" />
	<path d="M487.048 90.1932C490.929 86.0748 492.451 81.1998 490.446 79.3044C488.442 77.409 483.671 79.211 479.789 83.3294C475.908 87.4477 474.387 92.3228 476.391 94.2182C478.396 96.1135 483.167 94.3115 487.048 90.1932Z" fill="#32274B" />
	<path d="M492.981 76.6224L490.583 79.9951L490.543 84.1393L486.621 85.4531L484.161 88.786L480.217 87.5384L476.269 88.786L473.809 85.4531L469.887 84.1393L469.852 79.9951L467.453 76.6224L469.852 73.2498L469.887 69.1056L473.813 67.7918L476.269 64.4589L480.217 65.7065L484.161 64.4589L486.621 67.7918L490.543 69.1056L490.583 73.2498L492.981 76.6224Z" fill="#88D0A3" stroke="#32274B" stroke-linejoin="round" />
	<path d="M499.019 158.152H505.356L520.644 137.13H514.649L499.019 158.152Z" fill="#32274B" stroke="#32274B" stroke-linejoin="round" />
	<path d="M541.823 112.161H537.282L516.377 112.811L503.052 91.3755H498.511L499.298 116.777L477.76 130.211H482.301L503.205 129.567L511.668 143.174H516.209L520.645 137.13L520.285 125.596L541.823 112.161Z" fill="#FA9589" stroke="#32274B" stroke-linejoin="round" />
	<path d="M507.66 129.428L516.209 143.174L520.644 137.13L520.284 125.596L541.823 112.161L516.463 112.95L503.052 91.3755L503.834 116.777L482.3 130.211L507.66 129.428Z" fill="#FFB6AB" stroke="#32274B" stroke-linejoin="round" />
	<path d="M573.616 75.8112C574.561 79.1289 572.641 82.5908 569.329 83.538C566.017 84.4852 562.561 82.5619 561.615 79.2443C560.67 75.9266 563.89 64.459 563.89 64.459C563.89 64.459 572.67 72.4887 573.616 75.8112Z" fill="#F3ECF7" stroke="#32274B" stroke-linejoin="round" />
	<path d="M661.364 40.8316L640.843 37.009L637.022 57.5642L641.011 63.0359L661.536 66.8633L665.357 46.3033L661.364 40.8316Z" fill="#FAA3CA" stroke="#32274B" stroke-linejoin="round" />
	<path d="M644.835 42.4784L641.013 63.0359L661.536 66.8645L665.358 46.3071L644.835 42.4784Z" fill="#FFBFDB" stroke="#32274B" stroke-linejoin="round" />
	<path d="M644.832 42.4808L640.843 37.009" stroke="#32274B" stroke-linejoin="round" />
	<path d="M661.234 66.8773H647.51L639.403 77.5035H653.122L661.234 66.8773Z" fill="#32274B" stroke="#32274B" stroke-linejoin="round" />
	<path d="M609.101 207.632C607.248 207.632 605.525 208.171 604.07 209.099C602.616 208.171 600.893 207.632 599.04 207.632C597.187 207.632 595.464 208.171 594.009 209.099C592.555 208.171 590.831 207.632 588.978 207.632C583.799 207.632 579.599 211.839 579.599 217.027C579.599 222.215 583.799 226.423 588.978 226.423C590.831 226.423 592.555 225.884 594.009 224.956C595.464 225.884 597.192 226.423 599.04 226.423C600.888 226.423 602.616 225.884 604.07 224.956C605.525 225.884 607.253 226.423 609.101 226.423C614.28 226.423 618.481 222.215 618.481 217.027C618.481 211.839 614.28 207.632 609.101 207.632Z" fill="#F3ECF7" stroke="#32274B" stroke-linejoin="round" />
	<path d="M551.817 199.756C549.153 199.756 546.767 200.948 545.159 202.828C543.551 200.953 541.165 199.756 538.501 199.756C533.658 199.756 529.727 203.694 529.727 208.545C529.727 213.397 533.653 217.335 538.501 217.335C541.165 217.335 543.551 216.142 545.159 214.262C546.767 216.137 549.153 217.335 551.817 217.335C556.665 217.335 560.592 213.401 560.592 208.545C560.592 203.689 556.665 199.756 551.817 199.756Z" fill="#F3ECF7" stroke="#32274B" stroke-linejoin="round" />
	<path d="M413.278 203.518C411.104 203.518 409.203 204.672 408.137 206.398C407.072 204.672 405.171 203.518 402.996 203.518C400.822 203.518 398.921 204.672 397.855 206.398C396.79 204.672 394.889 203.518 392.709 203.518C389.368 203.518 386.661 206.229 386.661 209.581C386.661 212.932 389.368 215.644 392.709 215.644C394.884 215.644 396.785 214.49 397.855 212.764C398.921 214.49 400.822 215.644 402.996 215.644C405.171 215.644 407.072 214.49 408.137 212.764C409.203 214.49 411.104 215.644 413.278 215.644C416.619 215.644 419.331 212.932 419.331 209.581C419.331 206.234 416.624 203.518 413.278 203.518Z" fill="#F3ECF7" stroke="#32274B" stroke-linejoin="round" />
	<path d="M610.923 161.474C613.261 161.474 615.156 159.576 615.156 157.234C615.156 154.891 613.261 152.993 610.923 152.993C608.584 152.993 606.689 154.891 606.689 157.234C606.689 159.576 608.584 161.474 610.923 161.474Z" fill="#F3ECF7" stroke="#32274B" stroke-miterlimit="10" />
	<path d="M114.034 42.4809C116.372 42.4809 118.267 40.5822 118.267 38.24C118.267 35.8978 116.372 33.9991 114.034 33.9991C111.695 33.9991 109.8 35.8978 109.8 38.24C109.8 40.5822 111.695 42.4809 114.034 42.4809Z" fill="#F3ECF7" stroke="#32274B" stroke-miterlimit="10" />
	<path d="M425.048 124.815L404.527 120.993L400.706 141.548L404.695 147.02L425.221 150.847L429.042 130.287L425.048 124.815Z" fill="#FAA3CA" stroke="#32274B" stroke-linejoin="round" />
	<path d="M408.52 126.462L404.697 147.02L425.221 150.848L429.043 130.291L408.52 126.462Z" fill="#FFBFDB" stroke="#32274B" stroke-linejoin="round" />
	<path d="M408.516 126.465L404.527 120.993" stroke="#32274B" stroke-linejoin="round" />
	<path d="M424.919 150.848H411.195L403.087 161.474H416.806L424.919 150.848Z" fill="#32274B" stroke="#32274B" stroke-linejoin="round" />
	<path d="M398.644 110.912C401.048 108.361 401.99 105.342 400.748 104.168C399.507 102.994 396.552 104.11 394.148 106.661C391.744 109.212 390.801 112.231 392.043 113.405C393.284 114.579 396.24 113.463 398.644 110.912Z" fill="#32274B" />
	<path d="M401.179 102.918C402.104 106.166 400.225 109.554 396.982 110.482C393.74 111.409 390.357 109.526 389.431 106.279C388.506 103.031 391.659 91.8052 391.659 91.8052C391.659 91.8052 400.253 99.6655 401.179 102.918Z" fill="#EADFF8" stroke="#32274B" stroke-linejoin="round" />
	<path d="M511.87 1C509.206 1 506.82 2.19245 505.212 4.07246C503.604 2.19725 501.218 1 498.554 1C493.711 1 489.779 4.93793 489.779 9.78942C489.779 14.6409 493.706 18.5788 498.554 18.5788C501.218 18.5788 503.604 17.3864 505.212 15.5064C506.82 17.3816 509.206 18.5788 511.87 18.5788C516.718 18.5788 520.645 14.6457 520.645 9.78942C520.645 4.93312 516.718 1 511.87 1Z" fill="#F3ECF7" stroke="#32274B" stroke-linejoin="round" />
	<path d="M235.86 226.423C232.278 226.423 229.148 228.322 227.388 231.159C225.633 228.322 222.498 226.423 218.916 226.423C215.334 226.423 212.204 228.322 210.444 231.159C208.689 228.322 205.554 226.423 201.972 226.423C196.466 226.423 192.004 230.885 192.004 236.39C192.004 241.895 196.466 246.357 201.972 246.357C205.554 246.357 208.689 244.458 210.444 241.621C212.199 244.458 215.334 246.357 218.916 246.357C222.498 246.357 225.628 244.458 227.388 241.621C229.143 244.458 232.278 246.357 235.86 246.357C241.366 246.357 245.828 241.895 245.828 236.39C245.828 230.885 241.366 226.423 235.86 226.423Z" fill="#F3ECF7" stroke="#32274B" stroke-width="0.771721" stroke-linejoin="round" />
	<path d="M184.087 74.5586C179.92 74.5586 176.278 76.7882 174.231 80.1185C172.189 76.7882 168.542 74.5586 164.374 74.5586C160.207 74.5586 156.565 76.7882 154.518 80.1185C152.476 76.7882 148.829 74.5586 144.662 74.5586C138.257 74.5586 133.066 79.7968 133.066 86.2599C133.066 92.7229 138.257 97.9611 144.662 97.9611C148.829 97.9611 152.476 95.7315 154.518 92.4012C156.56 95.7315 160.207 97.9611 164.374 97.9611C168.542 97.9611 172.183 95.7315 174.231 92.4012C176.273 95.7315 179.92 97.9611 184.087 97.9611C190.492 97.9611 195.683 92.7229 195.683 86.2599C195.683 79.7968 190.492 74.5586 184.087 74.5586Z" fill="#F3ECF7" stroke="#32274B" stroke-width="0.771721" stroke-linejoin="round" />
	<path d="M52.1979 271.432C60.7381 271.432 67.6612 264.509 67.6612 255.969C67.6612 247.429 60.7381 240.506 52.1979 240.506C43.6578 240.506 36.7347 247.429 36.7347 255.969C36.7347 264.509 43.6578 271.432 52.1979 271.432Z" fill="#F3ECF7" stroke="#32274B" stroke-width="0.771721" stroke-linejoin="round" />
	<path d="M329.598 80.7335C330.06 80.7863 330.296 82.0653 330.118 83.5895C329.945 85.1137 329.425 86.311 328.964 86.2581C328.502 86.2052 322.083 82.6712 322.083 82.6712C322.083 82.6712 329.137 80.6806 329.598 80.7335Z" fill="#F3ECF7" stroke="#32274B" stroke-width="0.771721" stroke-linejoin="round" />
	<path d="M343.994 88.5612C343.456 88.417 343.321 87.1668 343.696 85.7772C344.071 84.3829 344.812 83.3731 345.35 83.5174C345.889 83.6616 354.438 88.6622 354.438 88.6622C354.438 88.6622 344.533 88.7054 343.994 88.5612Z" fill="#F3ECF7" stroke="#32274B" stroke-width="0.771721" stroke-linejoin="round" />
	<path d="M378.33 123.325H259.076L197.695 206.627L199.849 212.272H319.097L381.922 127.335L378.33 123.325Z" fill="#5EBC89" stroke="#32274B" stroke-width="0.771721" stroke-miterlimit="10" />
	<path d="M316.948 206.627H197.695L259.076 123.325H378.33L316.948 206.627Z" fill="#88D0A3" stroke="#32274B" stroke-width="0.771721" stroke-linejoin="round" />
	<path d="M320.227 211.368L318.078 205.723" stroke="#32274B" stroke-width="0.771721" stroke-miterlimit="10" />
	<path d="M274.987 148.279H155.733L94.3515 231.582L96.5056 237.227H215.759L278.583 152.294L274.987 148.279Z" fill="#EE86B7" stroke="#32274B" stroke-width="0.771721" stroke-miterlimit="10" />
	<path d="M213.605 231.582H94.3515L155.733 148.279H274.987L213.605 231.582Z" fill="#FAA3CA" stroke="#32274B" stroke-width="0.771721" stroke-linejoin="round" />
	<path d="M215.759 237.227L213.604 231.582" stroke="#32274B" stroke-width="0.771721" stroke-miterlimit="10" />
	<path d="M182.039 171.08H62.7853L1.40833 254.382L3.5576 260.027H122.811L185.635 175.095L182.039 171.08Z" fill="#A88FEF" stroke="#32274B" stroke-width="0.771721" stroke-miterlimit="10" />
	<path d="M120.657 254.382H1.40833L62.7852 171.08H182.039L120.657 254.382Z" fill="#C1AAF7" stroke="#32274B" stroke-width="0.771721" stroke-linejoin="round" />
	<path d="M122.811 260.027L120.657 254.382" stroke="#32274B" stroke-width="0.771721" stroke-miterlimit="10" />
	<path d="M154.339 231.577L183.482 177.802L143.997 231.202L154.339 231.577Z" fill="#32274B" />
	<path d="M249.075 206.66L278.217 152.885L238.732 206.281L249.075 206.66Z" fill="#32274B" />
	<path d="M55.7606 232.029C60.0006 227.538 61.6626 222.221 59.4729 220.154C57.2831 218.087 52.0707 220.052 47.8307 224.544C43.5907 229.035 41.9286 234.352 44.1184 236.419C46.3082 238.486 51.5205 236.521 55.7606 232.029Z" fill="#32274B" />
	<path d="M145.919 189.456C149.195 185.986 150.479 181.878 148.788 180.281C147.096 178.684 143.069 180.203 139.794 183.673C136.518 187.143 135.234 191.251 136.925 192.847C138.617 194.444 142.644 192.926 145.919 189.456Z" fill="#32274B" />
	<path d="M302.327 193.225C305.603 189.755 306.887 185.648 305.196 184.051C303.504 182.454 299.477 183.973 296.202 187.443C292.926 190.913 291.642 195.02 293.333 196.617C295.025 198.214 299.052 196.696 302.327 193.225Z" fill="#32274B" />
	<path d="M261.676 157.404C264.084 154.853 265.028 151.833 263.784 150.659C262.541 149.485 259.581 150.601 257.173 153.152C254.765 155.703 253.821 158.723 255.064 159.897C256.308 161.071 259.268 159.954 261.676 157.404Z" fill="#32274B" />
	<path d="M85.4666 217.096C86.8288 214.736 86.9563 212.259 85.7512 211.564C84.5462 210.868 82.4649 212.217 81.1026 214.576C79.7404 216.936 79.6129 219.412 80.818 220.108C82.023 220.804 84.1043 219.455 85.4666 217.096Z" fill="#32274B" />
	<path d="M202.513 186.26C203.876 183.901 204.003 181.424 202.798 180.728C201.593 180.032 199.512 181.381 198.15 183.741C196.787 186.1 196.66 188.577 197.865 189.273C199.07 189.969 201.151 188.62 202.513 186.26Z" fill="#32274B" />
	<path d="M303.13 157.945C304.492 155.585 304.62 153.109 303.415 152.413C302.21 151.717 300.128 153.066 298.766 155.425C297.404 157.785 297.276 160.262 298.481 160.958C299.686 161.653 301.768 160.304 303.13 157.945Z" fill="#32274B" />
	<path d="M62.2421 217.229L59.6217 220.907L59.5784 225.427L55.2943 226.86L52.6065 230.495L48.2983 229.134L43.9853 230.495L41.2975 226.86L37.0134 225.427L36.9749 220.907L34.3545 217.229L36.9749 213.551L37.0134 209.031L41.3023 207.598L43.9853 203.963L48.2983 205.324L52.6065 203.963L55.2943 207.598L59.5784 209.031L59.6217 213.551L62.2421 217.229Z" fill="#88D0A3" stroke="#32274B" stroke-width="0.771721" stroke-linejoin="round" />
	<path d="M84.0427 215.575C83.2446 215.575 82.4753 215.195 81.9944 214.527C81.9319 214.44 75.5803 205.737 65.7427 198.371C52.8951 188.75 40.4514 185.817 28.7626 189.649L27.1855 184.846C40.3793 180.518 54.7992 183.826 68.8728 194.404C74.4359 198.583 78.8883 203.088 81.8694 206.43C82.5666 195.924 84.4851 174.22 89.3125 152.433C93.2697 134.581 98.3809 120.122 104.511 109.462C112.445 95.6724 122.162 88.1091 133.399 86.984C144.573 85.8685 155.243 90.3353 165.109 100.269C172.764 107.967 179.962 118.992 186.511 133.028C192.478 145.817 196.829 158.862 199.579 168.204C200.661 160.396 202.498 150.082 205.566 139.442C209.239 126.7 213.922 116.17 219.49 108.145C226.64 97.841 235.276 91.6095 245.166 89.6333C262.908 86.0849 278.713 96.235 290.868 118.983C295.465 127.585 298.701 136.369 300.783 142.961C304.73 125.132 315.304 91.4941 339.614 85.6136L340.802 90.5276C311.486 97.6198 303.855 154.059 303.783 154.626C303.624 155.847 302.61 156.775 301.384 156.828C300.153 156.876 299.066 156.04 298.807 154.838C298.768 154.664 294.965 137.34 286.363 121.286C275.218 100.466 261.687 91.4845 246.157 94.5954C226.51 98.5237 215.879 121.916 210.422 140.846C204.378 161.814 203.2 182.047 203.186 182.249C203.113 183.509 202.128 184.528 200.868 184.629C199.608 184.73 198.469 183.889 198.195 182.658C197.983 181.711 176.644 87.7389 133.899 92.023C111.897 94.2252 100.189 126.685 94.2458 153.535C87.6537 183.283 86.5719 212.849 86.5574 213.142C86.519 214.219 85.8025 215.157 84.7688 215.474C84.5284 215.546 84.2783 215.585 84.0331 215.585L84.0427 215.575Z" fill="#EADFF8" stroke="#32274B" stroke-width="0.771721" stroke-linejoin="round" />
	<path d="M80.8501 205.362C80.8501 205.362 84.9563 210.036 86.5719 213.132" stroke="#32274B" stroke-width="0.771721" stroke-linejoin="round" />
	<path d="M199.161 166.685C199.161 166.685 202.565 178.215 203.2 182.245" stroke="#32274B" stroke-width="0.771721" stroke-linejoin="round" />
	<path d="M300.403 141.783C300.403 141.783 303.144 150.52 303.793 154.621" stroke="#32274B" stroke-width="0.771721" stroke-linejoin="round" />
	<path d="M138.621 161.199L143.746 157.747L144.795 163.839L150.973 164.06L148.237 169.599L153.108 173.412L147.636 176.292L149.338 182.235L143.217 181.35L141.102 187.154L136.673 182.841L131.543 186.293L130.495 180.201L124.321 179.98L127.052 174.436L122.186 170.628L127.653 167.748L125.956 161.805L132.072 162.69L134.192 156.886L138.621 161.199Z" fill="#FAA3CA" stroke="#32274B" stroke-width="0.771721" stroke-linejoin="round" />
	<path d="M338.618 95.9851C344.622 95.9851 349.489 91.1178 349.489 85.1137C349.489 79.1096 344.622 74.2423 338.618 74.2423C332.614 74.2423 327.747 79.1096 327.747 85.1137C327.747 91.1178 332.614 95.9851 338.618 95.9851Z" fill="#7F69CE" stroke="#32274B" stroke-width="0.771721" stroke-linejoin="round" />
	<path d="M338.277 76.4107C338.475 76.9348 337.537 77.7666 336.186 78.2763C334.835 78.7812 333.58 78.7667 333.383 78.2474C333.186 77.7234 332.282 67.8617 332.282 67.8617C332.282 67.8617 338.08 75.8914 338.277 76.4155V76.4107Z" fill="#F3ECF7" stroke="#32274B" stroke-width="0.771721" stroke-linejoin="round" />
	<path d="M347.038 81.6854C346.644 81.9354 345.653 81.0939 344.826 79.8005C343.994 78.5071 343.638 77.257 344.033 77.007C344.427 76.7569 351.63 75.425 351.63 75.425C351.63 75.425 347.432 81.4305 347.038 81.6805V81.6854Z" fill="#F3ECF7" stroke="#32274B" stroke-width="0.771721" stroke-linejoin="round" />
	<path d="M329.747 88.3832C330.103 88.0851 331.19 88.8016 332.176 89.9796C333.156 91.1576 333.666 92.3596 333.306 92.6577C332.95 92.9559 325.314 95.7013 325.314 95.7013C325.314 95.7013 329.387 88.6813 329.747 88.3832Z" fill="#F3ECF7" stroke="#32274B" stroke-width="0.771721" stroke-linejoin="round" />
	<path d="M338.099 94.8118C337.998 94.4031 339.167 93.7732 340.705 93.3982C342.244 93.0231 343.571 93.052 343.667 93.4607C343.768 93.8694 342.133 99.2979 342.133 99.2979C342.133 99.2979 338.195 95.2205 338.099 94.8166V94.8118Z" fill="#F3ECF7" stroke="#32274B" stroke-width="0.771721" stroke-linejoin="round" />
	<path d="M343.936 85.5752C343.936 85.5752 341.402 87.9312 339.878 87.9312C338.354 87.9312 337.118 86.6955 337.118 85.1713C337.118 83.6471 338.354 82.4114 339.878 82.4114C341.402 82.4114 343.936 85.5752 343.936 85.5752Z" fill="#F3ECF7" stroke="#32274B" stroke-width="0.771721" stroke-linejoin="round" />
	<path d="M30.2145 186.548C30.6184 187.904 30.027 189.274 28.8971 189.615C27.7623 189.952 26.517 189.13 26.1131 187.774C25.7092 186.418 26.3006 185.043 27.4354 184.706C28.5701 184.37 29.8154 185.192 30.2193 186.548H30.2145Z" fill="#EADFF8" stroke="#32274B" stroke-width="0.771721" stroke-linejoin="round" />
	<path d="M327.68 95.0857L329.949 95.9416L332.666 94.1097L331.632 93.374L327.68 95.0857Z" fill="#32274B" />
	<path d="M264.341 149.241C265.289 152.559 263.365 156.02 260.048 156.968C256.73 157.915 253.268 155.992 252.321 152.674C251.374 149.356 254.6 137.889 254.6 137.889C254.6 137.889 263.394 145.918 264.341 149.241Z" fill="#F3ECF7" stroke="#32274B" stroke-width="0.771721" stroke-linejoin="round" />
	<path d="M219.043 205.064C219.625 205.401 221.976 202.42 224.289 198.409C226.601 194.399 228.005 190.875 227.428 190.538C226.847 190.202 224.495 193.178 222.183 197.188C219.87 201.198 218.466 204.723 219.048 205.059L219.043 205.064Z" fill="#32274B" />
	<path d="M196.66 144.134C197.497 146.991 227.188 191.039 227.188 191.039C227.188 191.039 226.673 138.432 225.832 135.571C224.995 132.715 217.783 132.311 209.729 134.677C201.675 137.042 195.824 141.274 196.66 144.13V144.134Z" fill="#FBBD74" stroke="#32274B" stroke-width="0.771721" stroke-linejoin="round" />
	<path d="M212.776 145.02C220.83 142.656 226.679 138.422 225.84 135.563C225.001 132.704 217.791 132.303 209.737 134.668C201.683 137.032 195.834 141.266 196.673 144.125C197.512 146.984 204.722 147.385 212.776 145.02Z" fill="#FFD29F" stroke="#32274B" stroke-width="0.771721" stroke-linejoin="round" />
	<path d="M305.932 180.562C307.221 185.076 304.605 189.784 300.09 191.072C295.575 192.361 290.868 189.745 289.579 185.23C288.291 180.715 292.681 165.122 292.681 165.122C292.681 165.122 304.644 176.047 305.927 180.562H305.932Z" fill="#D7C4FA" stroke="#32274B" stroke-width="0.771721" stroke-linejoin="round" />
	<path d="M103.737 276.947C101.559 276.947 99.6546 278.101 98.5872 279.827C97.5197 278.101 95.6157 276.947 93.4376 276.947C91.2594 276.947 89.3554 278.101 88.288 279.827C87.2205 278.101 85.3165 276.947 83.1336 276.947C79.787 276.947 77.0752 279.659 77.0752 283.01C77.0752 286.362 79.787 289.073 83.1336 289.073C85.3117 289.073 87.2157 287.919 88.288 286.193C89.3554 287.919 91.2594 289.073 93.4376 289.073C95.6157 289.073 97.5197 287.919 98.5872 286.193C99.6546 287.919 101.559 289.073 103.737 289.073C107.083 289.073 109.8 286.362 109.8 283.01C109.8 279.664 107.088 276.947 103.737 276.947Z" fill="#F3ECF7" stroke="#32274B" stroke-width="0.771721" stroke-linejoin="round" />
	<path d="M301.71 234.904C304.053 234.904 305.951 233.005 305.951 230.663C305.951 228.321 304.053 226.422 301.71 226.422C299.368 226.422 297.47 228.321 297.47 230.663C297.47 233.005 299.368 234.904 301.71 234.904Z" fill="#F3ECF7" stroke="#32274B" stroke-width="0.771721" stroke-miterlimit="10" />
	<path d="M232.818 269.836C235.161 269.836 237.059 267.937 237.059 265.595C237.059 263.253 235.161 261.354 232.818 261.354C230.476 261.354 228.578 263.253 228.578 265.595C228.578 267.937 230.476 269.836 232.818 269.836Z" fill="#F3ECF7" stroke="#32274B" stroke-width="0.771721" stroke-miterlimit="10" />
	<path d="M352.779 181.16L381.921 127.384L342.436 180.78L352.779 181.16Z" fill="#32274B" />
</svg>
